<?xml version="1.0" standalone="no"?>
<!DOCTYPE svg PUBLIC "-//W3C//DTD SVG 20010904//EN"
 "http://www.w3.org/TR/2001/REC-SVG-20010904/DTD/svg10.dtd">
<svg version="1.0" xmlns="http://www.w3.org/2000/svg"
 width="1240.000000pt" height="1067.000000pt" viewBox="0 0 1240.000000 1067.000000"
 preserveAspectRatio="xMidYMid meet">

<g transform="translate(0.000000,1067.000000) scale(0.100000,-0.100000)"
fill="#000000" stroke="none">
<path d="M4580 10223 c-503 -22 -850 -65 -1015 -128 -339 -127 -717 -549
-1080 -1205 -73 -132 -237 -408 -309 -520 -147 -229 -187 -297 -262 -445 -138
-273 -218 -504 -244 -705 -8 -54 -9 -147 -5 -260 8 -192 7 -202 -54 -354 -35
-88 -135 -283 -214 -418 l-52 -90 -5 59 c-3 32 -9 64 -13 71 -5 7 -4 12 2 12
20 0 74 93 97 169 23 76 73 161 95 161 7 0 9 9 5 23 -4 17 7 35 48 81 67 73
69 84 67 389 l-1 127 -28 0 c-26 0 -56 -23 -77 -59 -4 -7 -13 -75 -21 -150 -7
-75 -16 -150 -20 -166 l-8 -30 -7 30 c-15 67 -9 204 11 256 21 57 19 69 -11
69 -36 0 -65 -42 -78 -111 -13 -66 -31 -111 -31 -78 0 18 -31 49 -48 49 -7 0
-21 -15 -32 -32 -24 -40 -26 -108 -5 -193 17 -69 19 -141 5 -150 -20 -12 -41
46 -51 136 -10 104 -25 169 -38 169 -17 0 -51 -87 -51 -131 0 -35 15 -75 71
-191 l72 -147 -28 -62 c-24 -54 -27 -70 -22 -123 4 -34 20 -104 37 -156 17
-52 32 -116 33 -141 l2 -47 26 14 c65 33 110 115 149 273 24 93 38 127 67 153
19 17 21 16 54 -18 76 -79 135 -98 238 -78 175 33 533 182 644 268 27 21 51
36 53 34 2 -2 -5 -26 -15 -54 -46 -121 -50 -291 -10 -398 19 -53 71 -126 88
-126 4 0 4 28 -1 63 -13 87 -4 196 20 244 35 68 102 81 190 37 136 -68 244
-280 309 -608 l27 -136 71 0 c40 0 107 -9 150 -20 78 -20 199 -27 209 -12 11
18 -133 348 -224 513 -132 236 -209 322 -424 468 -50 34 -82 61 -72 61 34 0
140 -32 190 -57 73 -37 204 -174 327 -343 57 -80 112 -146 120 -148 9 -2 25
15 39 40 19 34 25 57 24 108 0 96 -53 192 -208 378 -198 236 -203 386 -14 421
72 14 143 3 188 -29 39 -28 92 -136 138 -280 22 -69 59 -185 82 -258 39 -122
61 -162 53 -95 -45 388 -69 468 -183 638 -28 42 -49 79 -47 82 13 12 49 -12
84 -53 36 -45 97 -84 129 -84 9 0 57 33 108 73 156 126 235 180 416 287 243
143 362 215 454 274 l79 51 -30 8 c-42 12 -125 -7 -212 -48 -93 -45 -133 -72
-326 -227 -243 -196 -429 -282 -554 -258 -61 11 -73 17 -171 85 -41 29 -94 59
-118 68 -84 33 -205 16 -329 -47 -62 -31 -107 -63 -293 -206 -194 -149 -356
-177 -543 -93 l-59 27 7 55 c19 161 103 403 201 583 122 223 256 397 502 649
253 260 857 823 1012 944 109 84 246 151 495 240 282 101 412 190 477 323 30
63 32 74 33 179 l0 113 35 14 c140 55 371 61 535 12 105 -31 317 -132 425
-201 41 -26 132 -90 203 -142 71 -52 131 -92 135 -89 11 11 -88 142 -160 213
-86 83 -166 137 -303 203 -244 119 -503 179 -866 200 -166 9 -212 10 -359 3z
m-1122 -3083 c23 -10 42 -20 42 -22 0 -2 -30 -3 -68 -4 -93 -1 -206 -28 -340
-81 -63 -24 -116 -42 -119 -40 -7 8 75 61 165 106 143 72 225 82 320 41z
m-680 -309 c-111 -107 -146 -133 -93 -69 35 42 185 178 197 178 5 0 -42 -49
-104 -109z"/>
<path d="M6436 9311 c-3 -4 16 -22 43 -39 144 -94 262 -275 361 -557 87 -248
120 -521 100 -817 -39 -571 -161 -917 -420 -1192 l-79 -83 5 -49 c4 -32 -1
-81 -15 -139 -20 -92 -18 -110 15 -103 33 6 45 63 39 178 l-6 105 58 30 c209
108 397 466 467 890 64 381 33 873 -76 1205 -63 195 -205 400 -353 510 -81 60
-127 80 -139 61z"/>
<path d="M5040 8414 c0 -29 106 -221 207 -374 82 -125 116 -166 247 -295 146
-145 267 -246 362 -301 25 -15 48 -24 51 -20 11 11 -84 186 -155 286 -79 112
-151 184 -372 375 -147 126 -221 200 -313 313 -20 24 -27 29 -27 16z"/>
<path d="M7500 7640 l0 -680 248 0 247 0 -3 680 -2 680 -245 0 -245 0 0 -680z
m410 0 l0 -600 -165 0 -165 0 0 600 0 600 165 0 165 0 0 -600z"/>
<path d="M8060 8090 l0 -230 245 0 245 0 0 -450 0 -450 250 0 250 0 0 450 0
450 245 0 245 0 0 230 0 230 -740 0 -740 0 0 -230z m1400 0 l0 -150 -245 0
-245 0 0 -450 0 -450 -167 2 -168 3 0 448 0 447 -247 0 -248 0 0 150 0 150
660 0 660 0 0 -150z"/>
<path d="M9635 7975 c0 -190 2 -345 5 -345 3 -1 83 79 177 177 l173 178 0 168
0 167 -177 0 -178 0 0 -345z m275 155 l0 -110 -95 -98 -95 -97 0 208 0 207 95
0 95 0 0 -110z"/>
<path d="M10458 8306 c-140 -38 -224 -162 -222 -331 1 -143 66 -264 226 -429
59 -61 105 -112 102 -115 -8 -8 -46 -9 -296 -10 l-248 -1 0 -230 0 -230 441 0
c415 0 446 1 510 20 249 74 310 322 148 598 -19 31 -82 105 -141 164 -60 60
-108 110 -108 113 0 3 126 5 280 5 l280 0 0 230 0 230 -462 -1 c-340 0 -475
-4 -510 -13z m892 -216 l0 -150 -242 0 c-212 0 -247 -2 -277 -18 -80 -40 -69
-76 68 -216 174 -178 240 -306 228 -438 -8 -91 -45 -144 -131 -188 l-69 -35
-411 0 -411 0 -3 148 -3 147 218 0 c120 0 235 3 255 6 51 9 88 44 88 85 0 27
-16 48 -105 138 -174 175 -238 285 -238 411 -1 116 62 216 154 245 34 11 138
14 462 14 l417 1 0 -150z"/>
<path d="M4703 7478 c-41 -44 -131 -198 -175 -300 -95 -217 -169 -488 -190
-691 -26 -262 48 -575 158 -665 43 -36 70 -42 59 -14 -66 162 -90 294 -89 487
1 227 39 377 152 602 69 139 144 241 297 401 108 113 115 122 88 122 -31 0
-97 -29 -129 -57 -12 -10 -40 -43 -62 -75 -23 -31 -54 -65 -69 -75 -26 -18
-124 -63 -137 -63 -24 0 24 131 58 159 10 8 38 43 62 77 50 70 58 114 21 114
-13 0 -33 -10 -44 -22z"/>
<path d="M5385 7481 c-110 -13 -228 -62 -358 -149 -124 -81 -216 -192 -279
-337 -29 -66 -62 -174 -56 -181 3 -2 19 15 36 39 17 23 91 103 164 178 122
125 140 140 221 179 48 23 90 40 92 38 3 -3 -28 -26 -68 -53 -42 -29 -145
-123 -247 -225 -164 -164 -178 -181 -227 -275 -74 -145 -114 -285 -80 -285 32
0 84 73 111 155 17 54 60 115 71 103 4 -4 -9 -42 -29 -84 -44 -94 -51 -167
-13 -162 14 2 44 33 88 91 36 49 80 98 97 109 31 19 32 19 32 1 0 -11 -11 -34
-25 -53 -27 -36 -33 -86 -12 -93 6 -2 45 23 86 56 230 188 536 338 754 370 86
12 144 3 204 -34 41 -26 98 -94 118 -143 16 -37 15 -37 -5 -31 -36 11 -24 -37
38 -157 83 -162 105 -167 118 -29 18 193 -45 354 -170 440 -150 102 -358 105
-548 7 -49 -25 -88 -41 -88 -36 0 5 -14 17 -30 25 -28 14 -35 14 -77 0 -56
-19 -82 -5 -34 19 57 30 313 136 355 147 127 34 258 29 368 -16 65 -26 68 -23
39 42 -25 54 -93 127 -148 160 -63 37 -156 63 -223 63 -55 0 -59 2 -78 34 -24
40 -77 83 -112 89 -14 3 -52 1 -85 -2z m-55 -276 c-12 -13 -46 -32 -74 -41
-28 -9 -63 -25 -78 -35 -16 -11 -28 -18 -28 -15 0 30 46 65 128 97 67 26 80
24 52 -6z m195 -24 c-14 -12 -443 -251 -452 -251 -13 0 72 82 129 125 60 45
170 95 260 119 64 18 75 19 63 7z"/>
<path d="M4390 7280 c0 -16 -12 -66 -26 -110 -27 -86 -26 -147 1 -170 40 -33
98 218 65 279 -5 10 -16 21 -25 25 -11 4 -15 -2 -15 -24z"/>
<path d="M4226 7018 c4 -13 9 -108 9 -213 2 -188 8 -228 38 -253 13 -11 16 -3
26 53 18 100 15 306 -4 352 -26 61 -90 117 -69 61z"/>
<path d="M5642 6839 c-26 -8 -32 -14 -26 -27 4 -9 18 -52 30 -96 61 -203 6
-408 -149 -552 -85 -79 -143 -107 -233 -112 -134 -7 -234 65 -289 207 -29 77
-72 135 -104 144 -23 6 -46 -17 -62 -60 -5 -17 -19 -33 -30 -36 -26 -7 -25
-40 7 -134 84 -255 275 -413 499 -413 209 0 420 85 561 225 90 89 142 174 182
293 36 109 35 251 -2 375 -32 109 -59 163 -89 179 -28 15 -250 21 -295 7z"/>
<path d="M9117 6405 c-69 -209 -128 -390 -132 -403 l-6 -22 172 2 173 3 20 63
20 63 80 -3 79 -3 22 -60 23 -60 176 -3 c120 -2 176 1 176 8 0 6 -58 185 -130
397 -71 213 -130 388 -130 389 0 2 -94 5 -209 6 l-209 3 -125 -380z m322 268
c-6 -16 -39 -107 -74 -203 -35 -96 -66 -183 -70 -192 -7 -17 4 -18 149 -18 86
0 156 1 156 3 0 1 -31 97 -70 212 -38 115 -70 213 -70 217 0 7 140 12 140 6 0
-2 47 -144 105 -317 58 -172 105 -315 105 -316 0 -2 -42 -3 -92 -2 l-93 2 -21
60 -21 60 -139 0 -139 0 -21 -60 -21 -60 -78 -3 c-43 -2 -81 1 -85 5 -4 4 39
148 96 318 57 171 104 311 104 313 0 1 34 2 75 2 l75 0 -11 -27z m34 -285 l16
-48 -41 0 c-30 0 -39 3 -35 14 3 8 11 33 18 55 14 48 20 45 42 -21z"/>
<path d="M7221 6623 c-27 -87 -82 -261 -122 -388 -39 -126 -74 -236 -76 -242
-4 -10 165 -13 831 -13 l836 0 10 23 c14 33 240 756 240 767 0 6 -310 10 -834
10 l-835 0 -50 -157z m1609 71 c0 -5 -61 -201 -174 -559 l-22 -70 -739 -2
c-407 -2 -745 -1 -751 1 -8 3 13 83 61 233 40 125 85 267 100 316 l27 87 749
0 c412 0 749 -3 749 -6z"/>
<path d="M9940 6773 c0 -7 174 -564 224 -718 l23 -70 836 -3 c460 -1 837 0
837 3 0 5 -89 288 -186 593 l-65 202 -834 0 c-459 0 -835 -3 -835 -7z m1660
-235 c29 -90 74 -232 101 -316 27 -84 49 -155 49 -158 0 -2 -338 -3 -752 -1
l-751 2 -95 300 c-52 165 -96 308 -99 318 -5 16 35 17 745 17 l751 0 51 -162z"/>
<path d="M3990 6670 c-1 -37 53 -227 98 -346 47 -124 172 -387 194 -409 15
-14 2 140 -18 217 -8 35 -37 110 -64 168 -26 58 -63 145 -81 194 -25 67 -44
101 -80 140 -28 29 -48 45 -49 36z"/>
<path d="M2240 6333 c-14 -2 -104 -30 -200 -61 -225 -72 -289 -78 -372 -33
-32 17 -59 31 -60 31 -2 0 -3 -35 -4 -78 -1 -88 -45 -235 -109 -362 -36 -71
-60 -166 -44 -175 4 -3 30 4 58 14 27 11 94 32 147 46 288 74 552 24 1029
-195 448 -206 666 -276 890 -287 128 -6 266 11 346 43 l41 17 -7 46 c-9 60
-38 134 -77 201 -41 68 -97 102 -171 104 -50 1 -53 0 -69 -34 -17 -35 -17 -39
2 -105 11 -39 20 -87 20 -107 l0 -37 -42 15 c-54 19 -239 67 -380 99 -143 32
-243 67 -359 125 -119 59 -174 93 -217 134 -42 39 -107 147 -123 206 -7 25
-17 51 -22 58 -13 16 -59 8 -105 -19 -18 -10 -37 -19 -42 -19 -4 0 -35 20 -68
45 -72 55 -88 89 -74 164 5 28 22 69 37 90 26 38 31 72 10 76 -5 1 -21 0 -35
-2z"/>
<path d="M6084 6195 c-19 -29 -63 -135 -64 -151 0 -7 -21 -35 -46 -63 -173
-193 -496 -316 -733 -282 -133 20 -247 64 -346 135 l-50 36 -8 -28 c-15 -55
19 -227 63 -312 29 -57 114 -126 217 -179 74 -37 81 -27 28 42 -19 25 -35 51
-35 58 0 6 10 -1 22 -17 13 -16 29 -35 38 -42 108 -90 387 -110 530 -37 54 27
74 48 95 99 24 56 15 69 -32 49 -70 -29 -129 -43 -225 -53 -112 -11 -187 -1
-263 37 -47 23 -109 72 -101 80 2 2 57 -6 122 -18 157 -28 355 -23 453 11 97
34 206 113 266 192 86 114 136 285 121 411 -8 63 -25 74 -52 32z"/>
<path d="M1331 5874 c-38 -64 -61 -149 -61 -224 0 -62 3 -74 25 -95 40 -41 72
-32 49 13 -19 37 -19 38 22 163 35 110 38 154 11 171 -19 12 -24 10 -46 -28z"/>
<path d="M6101 5843 c-31 -42 -41 -66 -41 -94 0 -67 16 -92 116 -175 69 -58
116 -147 121 -233 5 -62 2 -71 -36 -146 -95 -189 -299 -402 -921 -960 -389
-349 -632 -540 -995 -780 -269 -178 -440 -277 -690 -400 -242 -119 -429 -191
-617 -239 -191 -49 -288 -59 -485 -53 -206 6 -317 31 -472 108 -89 44 -117 64
-191 138 -122 122 -186 239 -230 422 -38 160 -23 292 65 552 42 125 50 157 37
155 -9 -2 -31 -29 -50 -61 -60 -100 -122 -85 -122 32 -1 68 -14 139 -28 153
-14 14 -130 -96 -182 -172 -114 -168 -162 -331 -161 -550 3 -632 387 -1034
1096 -1145 138 -22 483 -31 625 -16 614 64 1192 321 1868 829 247 185 510 430
1158 1077 450 450 577 585 651 695 128 189 157 419 74 575 -42 80 -153 185
-247 233 -92 47 -256 112 -284 112 -11 0 -35 -23 -59 -57z"/>
<path d="M7538 5852 l-598 -2 0 -188 0 -187 200 3 200 3 0 -356 0 -355 203 2
202 3 3 353 2 353 200 -3 200 -3 0 187 c0 103 -3 188 -7 190 -5 2 -277 2 -605
0z m532 -187 l0 -105 -200 0 -200 0 -2 -352 -3 -353 -120 0 -120 0 -3 353 -2
352 -200 0 -200 0 0 105 0 105 525 0 525 0 0 -105z"/>
<path d="M8174 5845 c-2 -5 -3 -248 -2 -540 l3 -530 207 -3 207 -2 3 140 3
141 153 -140 152 -141 489 0 489 0 31 81 c17 44 31 85 31 90 0 5 59 9 133 9
l134 0 34 -90 33 -90 243 0 c134 0 243 2 243 4 0 2 -43 125 -96 273 -91 255
-172 482 -234 658 -15 44 -34 95 -40 113 l-12 32 -295 -2 -296 -3 -121 -347
-121 -348 -206 0 c-173 0 -209 2 -219 15 -7 9 -11 17 -9 18 2 1 29 14 60 29
78 37 123 79 155 145 23 46 28 68 27 132 -1 93 -13 142 -52 203 -39 61 -109
112 -191 138 -61 19 -93 20 -499 23 -282 1 -435 -1 -437 -8z m942 -103 c61
-28 117 -82 139 -135 23 -55 23 -163 1 -207 -39 -76 -93 -115 -201 -145 -33
-9 -66 -18 -73 -21 -9 -2 8 -31 49 -84 l61 -80 254 0 c254 0 254 0 264 23 6
12 61 168 124 347 l113 325 237 3 c184 2 237 0 241 -10 2 -7 74 -210 160 -451
85 -242 155 -443 155 -447 0 -5 -69 -9 -154 -9 l-154 0 -33 89 -33 89 -184 3
c-114 2 -187 -1 -191 -7 -4 -5 -18 -37 -30 -70 -13 -33 -27 -70 -32 -83 l-9
-22 -442 0 -442 1 -90 82 c-50 45 -120 109 -156 143 -115 108 -167 154 -174
154 -3 0 -6 -86 -6 -190 l0 -191 -127 3 -128 3 -3 458 -2 458 407 -3 c402 -3
409 -3 459 -26z"/>
<path d="M10045 5603 c-21 -54 -66 -172 -101 -263 -35 -90 -64 -168 -64 -172
0 -4 90 -8 201 -8 157 0 200 3 197 13 -3 6 -45 125 -93 262 -49 138 -92 254
-95 258 -4 5 -24 -36 -45 -90z m111 -338 l6 -25 -81 0 c-45 0 -81 4 -81 9 0 6
19 58 42 116 l42 107 33 -91 c18 -50 36 -103 39 -116z"/>
<path d="M8510 5469 l0 -130 215 3 215 3 26 26 c49 50 42 166 -13 209 -24 19
-40 20 -234 20 l-209 0 0 -131z m404 18 c7 -19 7 -34 0 -45 -10 -15 -31 -17
-165 -17 l-154 0 -1 48 -2 47 156 -2 157 -3 9 -28z"/>
<path d="M10792 5313 l3 -538 218 -3 217 -2 0 165 0 165 188 0 c271 0 345 22
453 130 75 74 94 132 87 265 -10 178 -86 281 -248 334 -60 20 -86 21 -492 21
l-428 0 2 -537z m925 428 c106 -47 163 -144 163 -276 0 -82 -14 -121 -64 -173
-90 -95 -156 -112 -443 -112 l-223 0 0 -165 0 -166 -137 3 -138 3 -3 458 -2
458 397 -3 c394 -3 399 -3 450 -27z"/>
<path d="M11150 5470 l0 -130 163 0 c223 0 245 14 235 151 -4 52 -8 64 -34 84
-28 23 -35 24 -196 25 l-168 0 0 -130z m315 0 l0 -45 -117 -3 -118 -3 0 51 0
51 118 -3 117 -3 0 -45z"/>
<path d="M1609 5667 c-151 -52 -219 -139 -234 -299 -7 -72 4 -100 32 -82 14 9
19 29 23 100 7 117 0 114 246 114 398 0 545 -29 1014 -200 532 -195 663 -233
875 -255 33 -3 93 -10 133 -16 40 -5 120 -9 177 -9 94 0 104 2 117 22 8 12 37
33 64 47 63 34 72 67 21 76 -26 5 -53 -1 -111 -25 -95 -40 -184 -51 -319 -39
-274 22 -556 116 -984 328 -373 184 -618 258 -868 260 -101 1 -131 -3 -186
-22z"/>
<path d="M1406 5168 c-3 -24 -7 -91 -10 -150 -5 -91 -3 -108 9 -108 21 0 42
37 61 110 20 74 14 124 -17 164 -28 36 -37 33 -43 -16z"/>
<path d="M1910 5191 c-70 -38 -105 -152 -98 -324 3 -87 6 -101 43 -173 22 -43
45 -79 52 -81 23 -8 24 57 2 163 -21 105 -21 206 0 227 10 10 28 -78 37 -178
7 -76 33 -147 66 -182 22 -24 48 -31 48 -13 0 24 -33 170 -53 235 -15 50 -22
109 -26 205 -7 150 -9 154 -71 121z"/>
<path d="M1625 4648 c0 -362 3 -483 13 -517 7 -23 15 -41 17 -39 7 7 34 248
55 498 11 135 27 286 35 336 l15 91 -43 46 c-23 25 -53 48 -67 52 l-25 6 0
-473z"/>
<path d="M2641 5061 c-82 -115 -113 -289 -69 -380 l22 -46 8 45 c4 25 32 93
63 152 60 117 68 158 37 217 -23 46 -36 48 -61 12z"/>
<path d="M2132 4907 c-3 -135 0 -170 14 -205 14 -35 38 -62 57 -62 2 0 3 35 3
78 -1 42 3 139 8 215 l9 137 -44 0 -44 0 -3 -163z"/>
<path d="M2407 4760 c-39 -116 -44 -148 -26 -199 9 -26 34 -51 52 -51 2 0 7
31 10 69 4 46 16 94 36 140 44 99 41 151 -8 151 -25 0 -29 -7 -64 -110z"/>
<path d="M4105 4809 c-27 -21 -66 -44 -85 -50 -53 -17 -161 -76 -199 -109
l-34 -29 19 -24 c11 -13 38 -48 61 -76 57 -70 73 -129 73 -265 0 -111 11 -179
31 -192 16 -10 65 43 77 84 15 49 15 88 6 264 -8 164 2 212 52 259 l26 24 38
-43 c96 -107 110 -296 46 -618 -33 -170 -47 -297 -33 -310 3 -3 24 31 47 77
113 223 156 405 147 619 -6 148 -21 213 -69 298 -29 51 -117 133 -141 131 -7
0 -34 -18 -62 -40z"/>
<path d="M1431 4742 c-6 -49 -11 -118 -11 -154 0 -58 4 -70 33 -109 l32 -44 2
40 c2 22 8 85 14 140 16 136 13 173 -14 196 -12 10 -27 18 -33 19 -7 0 -16
-36 -23 -88z"/>
<path d="M6726 4615 c8 -82 42 -161 116 -269 88 -130 121 -168 210 -242 67
-55 159 -161 174 -199 3 -6 -46 -62 -108 -125 -140 -142 -229 -266 -313 -435
-66 -134 -99 -222 -134 -360 -84 -330 -87 -715 -6 -1001 12 -42 20 -53 51 -68
l37 -17 -6 38 c-3 21 -22 133 -43 248 -36 195 -38 224 -39 400 0 155 3 202 19
255 49 174 181 373 392 590 66 69 150 160 186 203 101 119 139 141 199 117 24
-11 39 -31 75 -106 24 -51 44 -95 44 -98 0 -3 -9 -10 -20 -16 -14 -8 -42 -6
-104 7 -79 16 -85 16 -110 0 l-26 -18 246 -125 c136 -69 281 -146 323 -171
102 -62 276 -180 291 -198 32 -39 40 -3 11 53 -24 47 -90 109 -207 195 -154
112 -190 162 -239 322 -74 246 -175 351 -550 570 -195 114 -222 133 -284 201
-79 86 -108 132 -179 284 -10 21 -11 16 -6 -35z"/>
<path d="M3160 4599 c0 -6 10 -28 21 -51 19 -37 21 -52 15 -132 -19 -284 -19
-331 -2 -364 22 -42 36 -41 36 3 0 19 18 105 40 190 22 85 40 170 40 188 0 51
-20 108 -46 132 -26 24 -104 49 -104 34z"/>
<path d="M1027 3580 c-31 -16 -77 -43 -101 -60 -108 -74 -199 -240 -247 -450
-24 -103 -40 -463 -19 -444 20 20 48 153 69 329 20 172 42 255 85 329 32 55
47 67 156 127 104 56 135 86 151 142 18 66 -4 72 -94 27z"/>
</g>
</svg>
