<?xml version="1.0" standalone="no"?>
<!DOCTYPE svg PUBLIC "-//W3C//DTD SVG 20010904//EN"
 "http://www.w3.org/TR/2001/REC-SVG-20010904/DTD/svg10.dtd">
<svg version="1.0" xmlns="http://www.w3.org/2000/svg"
 width="1240.000000pt" height="1067.000000pt" viewBox="0 0 1240.000000 1067.000000"
 preserveAspectRatio="xMidYMid meet">

<g transform="translate(0.000000,1067.000000) scale(0.100000,-0.100000)"
fill="#000000" stroke="none">
<path d="M0 5335 l0 -5335 6200 0 6200 0 0 5335 0 5335 -6200 0 -6200 0 0
-5335z m5144 4870 c405 -48 756 -188 959 -384 64 -61 138 -154 167 -210 16
-30 18 -32 -155 94 -345 251 -611 365 -855 365 -93 0 -228 -21 -289 -46 l-36
-14 0 -113 c0 -107 -2 -116 -33 -179 -40 -82 -130 -169 -227 -220 -39 -20
-151 -66 -250 -103 -212 -79 -358 -146 -446 -206 -198 -134 -1113 -1006 -1301
-1239 -159 -198 -288 -414 -369 -617 -35 -89 -84 -273 -93 -354 l-7 -56 62
-28 c135 -60 268 -57 404 10 39 19 131 82 204 139 154 119 236 168 333 197
126 39 231 18 341 -66 201 -154 365 -110 754 198 116 93 222 168 266 190 94
47 196 73 239 61 l31 -9 -59 -40 c-32 -21 -167 -103 -299 -181 -342 -203 -414
-250 -557 -363 -69 -56 -134 -101 -143 -101 -31 0 -92 39 -128 84 -34 41 -71
65 -83 53 -3 -2 16 -35 42 -73 101 -151 142 -270 169 -489 8 -71 17 -145 20
-162 9 -73 -16 -25 -60 115 -95 300 -129 394 -164 454 -50 84 -81 100 -191 96
-94 -4 -132 -18 -164 -61 -46 -63 -10 -188 91 -310 179 -218 241 -319 250
-412 5 -43 1 -63 -20 -109 -15 -32 -32 -56 -41 -56 -9 0 -40 34 -71 75 -30 41
-81 110 -112 153 -31 42 -93 114 -138 159 -85 86 -143 120 -250 149 -89 24
-92 16 -15 -35 105 -69 258 -200 302 -257 58 -78 156 -248 220 -384 78 -164
149 -340 142 -351 -10 -16 -138 -10 -215 11 -41 11 -107 20 -146 20 -40 0 -73
1 -73 3 -1 1 -3 20 -6 42 -11 83 -63 293 -94 377 -57 156 -145 279 -232 322
-92 46 -163 29 -193 -46 -21 -54 -29 -156 -17 -235 5 -35 6 -63 2 -63 -13 0
-58 56 -78 95 -51 104 -54 264 -9 408 14 42 23 77 21 77 -2 0 -27 -18 -56 -39
-142 -108 -559 -271 -698 -273 -66 -1 -104 17 -170 78 l-48 45 -26 -31 c-14
-17 -30 -48 -35 -68 -5 -20 -17 -65 -26 -100 -33 -129 -83 -215 -146 -247
l-26 -14 -2 47 c-1 25 -15 89 -32 141 -45 140 -48 203 -14 279 l27 61 -67 138
c-81 163 -90 215 -55 287 12 25 26 46 30 46 12 0 29 -57 35 -120 12 -118 17
-146 31 -168 35 -53 45 17 18 128 -21 90 -20 153 3 192 26 45 56 48 75 7 l16
-31 18 78 c20 86 47 124 87 124 34 0 36 -6 16 -48 -10 -20 -22 -58 -25 -84 -6
-45 4 -224 12 -215 8 8 22 107 29 207 4 58 11 114 15 125 14 36 56 67 86 63
l29 -3 -1 -165 c-2 -271 -6 -291 -88 -369 -27 -27 -34 -40 -30 -58 4 -14 2
-23 -5 -23 -22 0 -72 -85 -95 -162 -14 -43 -40 -100 -59 -126 -33 -46 -34 -51
-28 -113 6 -64 6 -64 23 -39 71 109 219 399 272 535 l31 80 -3 210 c-2 151 2
237 13 306 44 278 195 625 440 1014 173 274 250 402 370 615 241 429 416 672
655 910 277 275 457 348 975 395 422 37 767 41 1029 10z m1411 -940 c122 -87
259 -255 322 -395 133 -296 190 -744 148 -1170 -50 -508 -244 -929 -488 -1055
l-57 -30 6 -95 c7 -101 -4 -168 -32 -190 -12 -11 -18 -11 -30 2 -14 14 -14 24
6 104 16 61 21 103 16 138 l-5 49 73 77 c166 174 277 379 341 629 93 369 115
829 54 1136 -42 206 -151 480 -249 625 -42 62 -154 171 -201 195 -16 9 -27 21
-23 26 10 17 55 0 119 -46z m-1400 -969 c33 -38 134 -133 225 -211 218 -187
292 -261 374 -375 69 -96 164 -275 153 -286 -9 -10 -106 49 -193 118 -43 34
-147 130 -229 212 -152 153 -222 244 -345 456 -88 150 -130 258 -73 188 15
-18 54 -64 88 -102z m2842 -656 l2 -680 -249 0 -250 0 0 680 0 680 248 0 247
0 2 -680z m1543 450 l0 -230 -245 0 -245 0 0 -450 0 -450 -250 0 -250 0 0 450
0 450 -245 0 -245 0 0 230 0 230 740 0 740 0 0 -230z m450 63 l0 -168 -173
-178 c-94 -98 -175 -178 -178 -177 -3 0 -7 155 -8 345 l-2 345 180 0 181 0 0
-167z m1440 -63 l0 -230 -264 0 c-145 0 -272 -3 -280 -6 -12 -5 6 -27 73 -90
101 -95 190 -220 222 -309 30 -83 36 -196 14 -271 -22 -77 -103 -160 -191
-195 -59 -24 -60 -24 -522 -27 l-462 -3 2 232 3 232 240 -1 c132 -1 255 2 274
6 l33 7 -91 90 c-106 104 -177 202 -216 300 -55 136 -33 302 53 397 20 22 49
47 66 55 77 40 98 42 579 42 l467 1 0 -230z m-6660 -601 c10 -17 6 -29 -23
-73 -19 -28 -53 -73 -75 -99 -38 -44 -83 -149 -70 -163 9 -8 107 35 146 63 18
14 43 41 56 62 52 82 135 140 200 141 27 0 23 -6 -70 -103 -176 -182 -239
-266 -318 -424 -61 -122 -105 -244 -132 -368 -24 -110 -24 -369 0 -480 16 -72
52 -191 71 -237 15 -36 -28 -18 -74 30 -67 69 -118 210 -142 391 -34 255 52
665 211 999 73 153 165 282 201 282 5 0 13 -9 19 -21z m717 -8 c19 -2 82 -61
98 -91 12 -24 19 -27 75 -28 121 -3 231 -52 308 -136 45 -50 92 -139 80 -151
-2 -3 -22 3 -44 14 -91 42 -245 56 -350 30 -55 -14 -364 -141 -395 -163 -31
-21 -5 -29 37 -11 49 20 67 19 95 -8 l24 -23 61 33 c132 72 272 98 396 74 236
-46 363 -229 345 -495 -6 -90 -13 -116 -32 -116 -20 0 -41 31 -94 139 -56 114
-65 157 -31 146 18 -6 19 -4 10 20 -30 80 -103 153 -181 181 -165 60 -597
-115 -906 -367 -64 -53 -73 -58 -87 -44 -18 18 -9 50 24 93 11 13 20 33 20 44
0 19 -1 19 -30 1 -17 -9 -58 -55 -91 -100 -62 -84 -95 -116 -111 -107 -19 12
-7 94 26 170 19 43 32 81 29 84 -10 10 -53 -55 -69 -105 -22 -66 -37 -95 -68
-127 -56 -62 -72 -20 -35 93 40 122 113 249 196 339 105 115 272 269 358 331
39 28 72 53 74 55 11 11 -134 -59 -177 -86 -43 -26 -252 -239 -329 -335 l-32
-40 13 50 c49 185 152 353 271 445 178 137 372 208 522 191z m-1053 -209 c20
-62 5 -165 -35 -244 l-21 -42 -19 23 c-24 30 -24 73 1 145 11 32 22 80 26 107
6 43 9 47 25 39 10 -6 20 -18 23 -28z m-168 -264 c12 -12 27 -39 33 -59 15
-47 15 -273 0 -350 -11 -57 -13 -59 -30 -43 -29 27 -39 103 -33 257 4 110 2
152 -9 189 -14 44 -14 47 2 39 9 -5 26 -20 37 -33z m1676 -180 c50 -33 118
-246 118 -371 0 -77 -33 -199 -82 -297 -34 -69 -58 -102 -132 -175 -101 -100
-195 -155 -336 -195 -96 -27 -258 -37 -331 -20 -170 40 -315 182 -386 378 -13
37 -28 86 -32 109 -7 37 -6 42 15 52 13 6 30 25 37 43 19 46 41 62 65 49 35
-19 69 -69 98 -143 31 -81 85 -148 149 -181 32 -17 57 -22 125 -22 78 0 90 3
148 34 120 65 234 220 263 358 20 101 2 252 -45 364 -12 29 38 39 175 36 97
-2 132 -6 151 -19z m2996 -56 c1 -5 -47 -169 -109 -363 -61 -195 -116 -371
-121 -391 l-10 -38 -840 0 -839 0 7 23 c4 12 59 189 123 392 64 204 119 375
123 380 8 13 1661 10 1666 -3z m718 6 c7 -8 264 -770 264 -785 0 -11 -35 -13
-177 -11 l-178 3 -21 60 -21 60 -80 3 -79 3 -20 -63 -20 -63 -172 -3 c-95 -1
-172 0 -172 4 0 3 59 184 130 402 l130 397 205 -1 c113 -1 208 -3 211 -6z
m1964 -23 c49 -158 233 -744 236 -757 5 -17 -39 -18 -831 -18 l-835 0 -10 26
c-30 78 -240 765 -237 771 3 5 379 8 836 8 l831 0 10 -30z m-7568 -130 c28
-30 45 -65 82 -167 19 -51 52 -131 74 -178 22 -47 48 -113 57 -148 20 -78 32
-228 18 -219 -17 11 -151 288 -192 399 -43 115 -85 257 -96 328 l-7 45 23 -20
c13 -11 31 -29 41 -40z m-1762 -308 c0 -12 -11 -39 -25 -59 -34 -50 -48 -119
-35 -168 8 -28 24 -48 63 -77 74 -56 70 -56 129 -28 78 37 95 34 109 -17 20
-77 89 -196 139 -241 48 -43 214 -135 330 -181 36 -15 173 -54 306 -86 132
-33 266 -69 297 -79 l57 -20 0 37 c0 20 -10 69 -21 109 -21 71 -21 72 -2 105
18 30 23 33 69 32 66 0 119 -28 160 -83 37 -51 82 -163 91 -226 l5 -42 -43
-16 c-86 -31 -125 -38 -251 -44 -82 -4 -155 -1 -205 7 -183 29 -461 129 -773
277 -336 160 -572 226 -800 226 -132 1 -209 -14 -360 -69 -39 -14 -74 -23 -79
-20 -16 10 7 103 44 176 64 127 108 274 109 362 1 43 2 78 4 78 1 0 30 -14 64
-31 56 -28 69 -31 128 -26 39 3 129 25 225 57 144 46 215 66 253 69 6 1 12 -9
12 -22z m3846 -143 c17 -113 -28 -288 -101 -399 -71 -107 -202 -195 -345 -232
-91 -23 -266 -21 -399 6 -58 11 -107 18 -109 16 -17 -17 103 -92 173 -109 87
-22 304 3 401 44 39 17 46 18 51 5 6 -18 -13 -72 -36 -99 -49 -58 -165 -96
-296 -96 -148 0 -260 35 -330 105 -39 39 -35 25 9 -34 14 -19 26 -39 26 -44 0
-29 -144 48 -218 117 -72 66 -118 180 -128 316 -6 91 4 114 38 84 108 -95 279
-153 452 -155 179 -1 333 47 502 158 113 73 184 152 207 230 21 68 60 133 82
133 9 0 16 -16 21 -46z m-4743 -301 c7 -24 3 -51 -21 -124 -43 -133 -45 -145
-27 -179 14 -26 14 -31 1 -36 -19 -7 -53 11 -67 38 -29 53 -4 207 48 296 29
50 53 52 66 5z m4875 -7 c237 -91 363 -188 433 -331 33 -67 34 -74 34 -180 -1
-180 -44 -287 -184 -463 -146 -183 -1097 -1128 -1465 -1456 -452 -402 -1030
-754 -1501 -914 -352 -119 -599 -158 -962 -149 -310 7 -494 41 -720 132 -392
158 -637 478 -678 885 -29 289 14 490 149 693 49 74 174 193 188 179 14 -14
27 -85 28 -153 0 -107 67 -135 111 -46 26 51 48 77 65 77 8 0 -3 -44 -33 -132
-95 -281 -112 -421 -69 -590 83 -328 293 -538 621 -625 92 -24 116 -26 315
-27 233 -1 275 5 495 66 441 122 1054 458 1640 898 210 158 337 264 575 478
101 92 230 207 285 256 165 147 506 495 575 586 35 47 79 118 98 158 30 63 34
80 30 131 -6 90 -55 179 -131 243 -34 28 -70 61 -80 75 -21 26 -33 89 -23 126
9 38 75 117 97 117 11 0 59 -15 107 -34z m-2287 -116 c34 -80 89 -260 89 -292
0 -37 -40 1 -106 103 -73 113 -123 153 -204 164 -44 6 -49 9 -40 25 5 10 41
30 79 45 57 21 74 33 91 63 l22 37 19 -35 c10 -19 33 -69 50 -110z m4167 -87
l2 -192 -177 0 c-98 0 -188 0 -200 -1 l-23 0 0 -350 0 -350 -205 0 -205 0 0
350 c0 273 -3 350 -12 351 -7 0 -97 0 -200 0 l-188 -1 0 188 c0 104 3 192 7
195 3 4 274 6 602 4 l596 -2 3 -192z m964 170 c108 -41 185 -110 225 -203 9
-21 15 -70 16 -125 2 -103 -16 -155 -76 -222 -32 -35 -129 -93 -157 -93 -8 0
-8 -6 0 -20 10 -19 21 -20 216 -20 l205 0 13 33 c7 17 62 172 121 342 59 171
112 316 117 322 8 10 79 13 287 12 153 0 283 -4 290 -8 7 -5 50 -113 96 -242
163 -457 295 -830 295 -834 0 -3 -110 -5 -244 -5 l-244 0 -32 90 -32 90 -134
0 c-86 0 -134 -4 -134 -10 0 -6 -14 -47 -31 -90 l-30 -80 -490 0 -490 0 -146
135 c-80 74 -149 133 -152 130 -2 -3 -5 -63 -5 -133 l-1 -127 -212 -3 -213 -2
0 538 c0 296 3 542 6 545 4 4 203 5 443 4 418 -3 438 -4 493 -24z m2527 16
c209 -36 323 -171 324 -384 1 -94 -23 -162 -80 -225 -101 -113 -191 -140 -458
-140 l-190 0 0 -163 0 -162 -220 0 -220 0 -3 530 c-1 292 0 536 3 543 6 16
747 17 844 1z m-9679 -170 c185 -26 413 -108 740 -266 336 -163 541 -240 751
-283 224 -46 386 -43 509 9 73 31 114 38 138 22 26 -16 7 -46 -46 -74 -28 -16
-57 -37 -62 -48 -16 -29 -157 -27 -440 6 -185 22 -341 66 -685 192 -647 237
-737 257 -1156 258 -194 0 -249 -3 -262 -14 -13 -10 -17 -31 -17 -91 0 -91 -5
-110 -30 -110 -26 0 -33 32 -25 106 8 82 53 173 105 214 111 88 252 111 480
79z m-506 -503 c31 -41 28 -146 -5 -212 -13 -27 -32 -50 -41 -52 -16 -3 -17 7
-12 115 8 194 14 209 58 149z m526 -84 c0 -73 6 -139 15 -172 62 -229 74 -300
51 -300 -23 0 -73 67 -84 114 -6 22 -17 90 -25 149 -19 141 -31 156 -41 56 -4
-38 0 -89 14 -160 20 -99 20 -169 0 -169 -15 0 -50 57 -76 127 -23 58 -26 83
-26 168 2 156 35 251 102 286 68 37 70 33 70 -99z m-262 -30 l44 -47 -11 -55
c-10 -49 -41 -356 -55 -550 -8 -99 -35 -312 -40 -318 -3 -2 -10 13 -18 35 -10
29 -13 149 -13 516 l0 478 25 -6 c14 -4 44 -27 68 -53z m982 -4 c34 -57 27
-105 -35 -227 -31 -60 -59 -128 -64 -152 l-8 -44 -21 45 c-26 55 -29 139 -6
218 21 75 83 192 100 192 8 0 23 -15 34 -32z m-484 -115 c-3 -71 -9 -151 -12
-178 -3 -28 -2 -67 4 -88 6 -20 7 -37 2 -37 -24 0 -43 16 -61 52 -19 36 -20
55 -17 209 l3 169 44 0 44 0 -7 -127z m292 -115 c2 -24 -7 -60 -26 -105 -19
-42 -33 -95 -37 -140 -4 -40 -11 -73 -15 -73 -26 0 -51 39 -57 86 -5 44 1 69
33 163 39 111 39 112 69 109 27 -3 30 -7 33 -40z m1710 -8 c111 -80 164 -227
163 -450 0 -185 -48 -365 -151 -570 -39 -78 -43 -83 -52 -61 -10 29 -6 66 33
274 41 213 47 285 38 402 -9 122 -29 181 -80 237 l-39 43 -29 -32 c-46 -49
-55 -98 -45 -248 13 -221 8 -269 -38 -320 -16 -19 -34 -35 -39 -35 -23 0 -34
55 -40 195 -7 173 -13 192 -94 291 -30 38 -55 72 -55 76 0 9 116 90 150 105
95 41 179 85 195 103 24 27 34 25 83 -10z m-2731 -9 c29 -25 33 -64 17 -173
-8 -51 -14 -117 -14 -147 l0 -54 -21 19 c-35 31 -51 74 -51 133 -1 83 23 241
36 241 6 -1 21 -9 33 -19z m5334 -328 c94 -140 153 -191 359 -308 211 -122
299 -183 385 -270 93 -93 138 -170 185 -320 51 -161 81 -200 246 -320 138
-101 193 -162 215 -238 8 -27 7 -28 -10 -15 -211 155 -357 242 -653 391 -216
108 -227 115 -210 130 23 21 60 21 132 2 88 -23 129 0 91 53 -10 15 -22 38
-26 52 -25 83 -77 129 -132 116 -37 -10 -59 -29 -133 -116 -35 -41 -120 -134
-190 -206 -203 -211 -327 -388 -374 -534 -67 -204 -62 -387 22 -845 16 -85 26
-155 23 -155 -3 1 -22 9 -41 18 -33 16 -36 22 -57 112 -102 428 -44 928 153
1321 75 151 179 295 306 423 l117 119 -26 46 c-15 25 -60 78 -101 116 -155
146 -189 183 -256 283 -80 120 -113 196 -121 278 l-6 59 35 -72 c19 -39 49
-93 67 -120z m-3569 93 c32 -21 58 -83 58 -139 0 -23 -16 -100 -35 -171 -19
-71 -37 -156 -41 -188 -7 -62 -20 -70 -41 -27 -18 37 -19 127 -3 291 14 145
13 149 -8 201 -12 29 -22 55 -22 59 0 10 64 -8 92 -26z m-2125 -981 c9 -26
-27 -104 -60 -129 -18 -13 -65 -41 -105 -61 -97 -50 -124 -74 -155 -138 -46
-94 -58 -139 -77 -308 -21 -184 -44 -297 -65 -325 -13 -17 -14 -3 -15 111 0
242 33 402 117 575 59 118 135 198 242 253 80 40 108 46 118 22z m3373 -2209
c0 -3 7 -38 15 -78 43 -204 82 -732 70 -951 -4 -70 -9 -126 -11 -124 -9 8 -35
176 -58 372 -32 274 -32 276 -53 503 l-17 194 -60 -6 c-165 -18 -518 -46 -654
-52 l-154 -7 6 -41 c3 -23 13 -117 21 -211 8 -93 17 -190 19 -215 3 -25 8 -94
11 -155 3 -60 8 -130 11 -155 9 -68 -2 -46 -35 75 -91 337 -123 545 -107 699
l7 65 52 5 c29 3 176 14 327 26 273 21 541 48 549 56 6 5 61 5 61 0z"/>
<path d="M3242 7141 c-79 -26 -205 -93 -258 -136 -24 -20 -10 -16 81 20 149
59 264 88 357 89 43 1 78 2 78 4 0 2 -20 12 -43 22 -69 31 -126 31 -215 1z"/>
<path d="M2797 6873 c-69 -63 -175 -181 -166 -186 2 -1 61 55 131 126 71 70
124 127 119 127 -4 0 -42 -30 -84 -67z"/>
<path d="M7580 7640 l0 -600 165 0 165 0 0 600 0 600 -165 0 -165 0 0 -600z"/>
<path d="M8145 8090 l0 -150 247 0 246 0 1 -437 c0 -241 0 -444 0 -451 1 -10
37 -12 164 -10 l162 3 3 448 2 447 245 0 245 0 0 150 0 150 -657 0 -658 0 0
-150z"/>
<path d="M9720 8033 l1 -208 94 100 95 99 0 108 0 108 -95 0 -95 0 0 -207z"/>
<path d="M10495 8230 c-114 -29 -178 -118 -177 -247 1 -130 56 -228 228 -404
122 -125 135 -151 97 -198 -27 -34 -80 -41 -314 -41 l-216 0 -5 -124 c-3 -68
-3 -135 -1 -150 l5 -26 379 0 c229 0 398 4 427 11 28 5 74 25 103 42 73 44
104 104 104 202 -1 136 -57 239 -227 411 -125 128 -140 160 -93 204 l27 25
259 3 259 3 0 149 0 150 -412 -1 c-227 -1 -426 -5 -443 -9z"/>
<path d="M5368 7313 c7 -3 16 -2 19 1 4 3 -2 6 -13 5 -11 0 -14 -3 -6 -6z"/>
<path d="M5276 7209 c-61 -25 -103 -54 -117 -82 -12 -21 -11 -22 8 -4 11 10
47 27 79 38 58 20 94 44 94 61 0 11 -8 10 -64 -13z"/>
<path d="M5445 7169 c-120 -34 -228 -94 -308 -171 l-72 -70 85 45 c99 51 336
184 365 203 25 18 15 17 -70 -7z"/>
<path d="M7327 6683 c-2 -10 -46 -148 -96 -308 -50 -159 -89 -295 -87 -302 4
-10 155 -12 747 -10 l742 2 98 310 c54 171 98 313 99 318 0 4 -337 7 -749 7
-704 0 -749 -1 -754 -17z"/>
<path d="M9197 6385 c-87 -264 -101 -315 -88 -319 9 -3 47 -4 85 -2 l70 2 19
60 c11 32 22 61 24 64 10 11 263 7 272 -4 4 -6 17 -36 28 -66 l21 -54 91 -2
c66 -1 91 2 88 10 -2 6 -50 149 -106 319 l-103 307 -69 0 c-38 0 -69 -3 -69
-8 0 -4 32 -102 70 -217 39 -115 70 -211 70 -212 0 -2 -70 -3 -156 -3 -121 0
-155 3 -151 13 2 6 34 93 70 192 36 99 70 192 76 208 l11 27 -75 0 -74 0 -104
-315z"/>
<path d="M9431 6409 c-7 -23 -15 -47 -18 -55 -4 -11 5 -14 34 -14 l40 0 -17
50 c-9 28 -19 53 -22 55 -3 3 -10 -13 -17 -36z"/>
<path d="M10050 6698 c0 -2 44 -145 99 -318 l98 -315 736 -2 c405 -2 743 0
750 3 11 4 2 44 -43 187 -32 100 -77 242 -99 315 l-42 132 -749 0 c-413 0
-750 -1 -750 -2z"/>
<path d="M7020 5665 l0 -105 200 0 200 0 2 -352 3 -351 120 -1 119 0 1 24 c1
14 2 172 3 353 l2 327 200 0 200 0 0 105 0 105 -525 0 -525 0 0 -105z"/>
<path d="M8257 5762 c-6 -9 -8 -892 -2 -901 1 -3 60 -5 129 -3 l126 3 2 188 3
189 206 -189 206 -189 448 -1 449 -1 8 24 c5 13 20 53 34 91 l26 67 185 -2
186 -3 31 -82 c17 -45 34 -85 38 -89 8 -8 296 -9 304 -2 3 4 -266 776 -308
881 l-11 27 -235 -2 -235 -3 -121 -347 -121 -348 -256 0 -256 0 -61 77 c-33
42 -59 80 -56 84 2 4 26 12 52 18 160 34 246 119 244 243 0 31 -6 74 -11 95
-15 56 -72 117 -139 150 l-57 28 -402 3 c-221 2 -404 -1 -406 -6z m1856 -122
c8 -25 49 -141 91 -259 42 -118 76 -217 76 -221 0 -11 -373 -12 -389 -1 -14 9
10 79 177 504 17 44 23 40 45 -23z m-1169 -53 c65 -43 75 -167 17 -219 l-31
-28 -210 0 -210 0 0 129 c0 126 1 130 23 134 12 2 103 4 203 3 156 -1 184 -4
208 -19z"/>
<path d="M10042 5365 c-23 -58 -42 -110 -42 -116 0 -5 36 -9 80 -9 44 0 80 4
80 8 0 5 -17 57 -38 116 l-38 107 -42 -106z"/>
<path d="M8597 5513 c-2 -5 -3 -26 -2 -48 l1 -40 152 -3 c150 -2 152 -2 163
21 7 15 7 31 0 50 l-11 27 -149 0 c-82 0 -152 -3 -154 -7z"/>
<path d="M10880 5763 c-1 -5 -1 -208 -1 -453 l0 -445 123 -5 c68 -3 129 -4
136 -2 9 3 12 45 12 163 0 120 3 159 13 160 6 0 116 1 242 2 217 2 233 3 290
26 79 32 158 109 175 171 13 48 9 151 -9 211 -13 44 -72 114 -115 136 -75 39
-120 43 -498 43 -203 0 -368 -3 -368 -7z m613 -173 c77 -41 86 -187 14 -230
-28 -18 -51 -20 -194 -20 l-163 0 0 128 c0 71 3 132 7 136 4 4 74 6 156 5 117
-2 156 -6 180 -19z"/>
<path d="M11237 5513 c-2 -4 -3 -26 -2 -48 l1 -40 115 0 114 0 0 45 0 45 -112
3 c-61 1 -113 -1 -116 -5z"/>
</g>
</svg>
